<svg
  xmlns="http://www.w3.org/2000/svg"
  aria-hidden="true"
  style="position:absolute;width:0;height:0;overflow:hidden"
>
  <defs>
    <symbol
      id="favicon"
      viewBox="0 0 32 32"
    >
      <path
        fill="#fcf1e0"
        d="M4.314 20.464 15.647 1.797 24.98 7.13l-.667 4.667 2 2-8.667 15.333z"
        style="fill:var(--color1, #fcf1e0)"
      />
      <path
        fill="none"
        stroke="#fd9222"
        stroke-linecap="round"
        stroke-linejoin="round"
        stroke-width="2.667"
        d="M20.37 22.715 6.801 14.236m3.933-6.451 13.569 8.479M9.652 24.927 21.451 5.573m4.49 8.002c-2.908-1.817-4.034-3.263-2.067-6.489l-9.207-5.753L2.868 20.687l13.569 8.479z"
        style="stroke:var(--color2, #fd9222)"
      />
    </symbol>
    <symbol
      id="facebook"
      viewBox="0 0 32 32"
    >
      <path
        d="M19.52 4.64h.96v3.6h-1.2c-.48 0-.96 0-1.2.24s-.24.48-.24 1.04v1.28h2.64v3.04h-2.64v13.2h-4.08V13.76H11.6v-3.04h2.16V9.68c0-1.76.24-3.04.72-3.6.72-1.04 2.16-1.52 4.32-1.52.24.08.48.08.72.08"
      />
    </symbol>
    <symbol
      id="instagram"
      viewBox="0 0 32 32"
    >
      <path
        d="M28.718 10.756a9.3 9.3 0 0 0-.596-3.145 6.55 6.55 0 0 0-3.743-3.737 9.4 9.4 0 0 0-3.108-.596c-1.367-.061-1.801-.078-5.273-.078s-3.916 0-5.274.078a9.4 9.4 0 0 0-3.106.596 6.54 6.54 0 0 0-3.743 3.737 9.3 9.3 0 0 0-.596 3.101c-.061 1.367-.08 1.8-.08 5.265s0 3.909.08 5.265a9.3 9.3 0 0 0 .596 3.104 6.55 6.55 0 0 0 3.744 3.735 9.4 9.4 0 0 0 3.106.639c1.369.061 1.803.079 5.274.079s3.917 0 5.274-.079a9.4 9.4 0 0 0 3.108-.595 6.56 6.56 0 0 0 3.743-3.737 9.4 9.4 0 0 0 .596-3.104c.061-1.365.08-1.798.08-5.265-.003-3.466-.003-3.906-.082-5.264zM15.99 22.531c-3.631 0-6.572-2.936-6.572-6.561s2.941-6.561 6.572-6.561c3.628 0 6.572 2.936 6.572 6.561s-2.944 6.561-6.572 6.561m6.834-11.835a1.53 1.53 0 1 1 0-3.06 1.53 1.53 0 1 1 0 3.06"
      />
      <path d="M15.992 19.976a4.004 4.004 0 1 0 0-8.009 4.004 4.004 0 0 0 0 8.009" />
    </symbol>
    <symbol
      id="twitter"
      viewBox="0 0 32 32"
    >
      <path
        d="M29.333 7.898c-.992.435-2.048.723-3.15.863a5.44 5.44 0 0 0 2.405-3.022 10.9 10.9 0 0 1-3.467 1.323 5.465 5.465 0 0 0-9.456 3.738c0 .433.037.85.127 1.247-4.545-.222-8.567-2.4-11.268-5.718a5.5 5.5 0 0 0-.748 2.763c0 1.893.975 3.572 2.428 4.543a5.4 5.4 0 0 1-2.47-.673v.06a5.49 5.49 0 0 0 4.38 5.372c-.445.122-.93.18-1.433.18-.35 0-.703-.02-1.035-.093.708 2.165 2.718 3.757 5.108 3.808a11 11 0 0 1-6.778 2.332c-.448 0-.878-.02-1.308-.075a15.4 15.4 0 0 0 8.387 2.453c10.06 0 15.56-8.333 15.56-15.557 0-.242-.008-.475-.02-.707a10.9 10.9 0 0 0 2.74-2.838z"
      />
    </symbol>
    <symbol
      id="arrow"
      viewBox="0 0 32 32"
    >
      <path
        fill="#fff"
        d="M16 31.18c8.61 0 15.59-6.98 15.59-15.59S24.61 0 16 0 .41 6.98.41 15.59 7.39 31.18 16 31.18"
        style="fill:var(--color3, #fff)"
      />
      <path
        fill="#fd9222"
        d="M16.534 16.643q-.106.106-.245.165c-.139.059-.19.058-.289.058a.75.75 0 0 1-.534-.223l-3.445-3.452q-.106-.106-.245-.165c-.139-.059-.19-.058-.289-.058a.753.753 0 0 0-.534 1.283l3.452 3.452a2.255 2.255 0 0 0 3.189 0l3.452-3.452a.752.752 0 0 0-1.068-1.061l-3.445 3.452z"
        style="fill:var(--color2, #fd9222)"
      />
    </symbol>
    <symbol
      id="antenna"
      viewBox="0 0 32 32"
    >
      <path
        fill="#2e2f42"
        d="m30.773 22.098-8.443-8.505.937-4.615c.242.094.499.144.758.146h.006a2.159 2.159 0 1 0-2.008-1.435l-4.96.605L8.972.161a.53.53 0 0 0-.377-.16.53.53 0 0 0-.373.155L6.709 1.66a.534.534 0 0 0 0 .754l.814.826a14.94 14.94 0 0 0 2.519 17.663.5.5 0 0 0 .146.098q-.05.271-.052.547v6.187h-6.4a2.67 2.67 0 0 0-2.667 2.667v1.067c0 .295.239.533.533.533h24.533a.533.533 0 0 0 .533-.533v-1.067a2.67 2.67 0 0 0-2.667-2.667h-6.4v-2.742a15 15 0 0 0 3.049.32 14.85 14.85 0 0 0 7.04-1.783l.818.823a.53.53 0 0 0 .377.16.53.53 0 0 0 .373-.155l1.513-1.504a.534.534 0 0 0 0-.754zM23.28 6.233a1.067 1.067 0 1 1 .753 1.822h-.003a1.067 1.067 0 0 1-.747-1.823h-.002zm-1.256 3.505-.598 2.946-1.175-1.182 1.774-1.763zm-.605-.902-1.92 1.909-1.485-1.493 3.405-.415zM24.004 28.8a1.6 1.6 0 0 1 1.6 1.6v.533H2.137V30.4a1.6 1.6 0 0 1 1.6-1.6zm-7.467-2.133v1.067h-5.333v-1.067zM11.204 25.6v-4.053c0-1.294 1.196-2.347 2.667-2.347s2.667 1.053 2.667 2.347V25.6zm6.4-1.696v-2.357c0-1.882-1.675-3.413-3.733-3.413a3.8 3.8 0 0 0-3.281 1.786A13.87 13.87 0 0 1 8.311 4.033l18.602 18.708a13.82 13.82 0 0 1-9.309 1.163m11.289-.684L7.836 2.039l.755-.752 7.935 7.98c.004 0 .006.007.01.01l13.115 13.191-.757.752z"
        style="fill:var(--color4, #2e2f42)"
      />
      <path
        fill="#4d5ae5"
        d="M13.876 20.267h-.005a1.6 1.6 0 1 0-.004 3.2h.005a1.6 1.6 0 1 0 .004-3.2m.373 1.978a.534.534 0 0 1-.752-.756.53.53 0 0 1 .373-.155.534.534 0 0 1 .374.911z"
        style="fill:var(--color5, #4d5ae5)"
      />
    </symbol>
    <symbol
      id="clock"
      viewBox="0 0 32 32"
    >
      <path
        fill="#2e2f42"
        d="M31.297 15.301C31.295 6.849 24.442-.002 15.989 0S.686 6.855.688 15.308a15.3 15.3 0 0 0 10.649 14.576.66.66 0 0 0 .529-.065.64.64 0 0 0 .283-.356l3.865-12.25a1.912 1.912 0 1 0-.84-3.635l-5.106-5.107a.637.637 0 0 0-.902.902l5.103 5.109a1.876 1.876 0 0 0 .536 2.309l-3.683 11.673C3.844 25.783.118 17.71 2.799 10.432S13.553-.572 20.831 2.109s11.004 10.754 8.323 18.032a14.04 14.04 0 0 1-7.462 7.973l-.398-1.874a.637.637 0 0 0-1.049-.344l-3.837 3.426a.637.637 0 0 0 .231 1.084l4.899 1.564a.638.638 0 0 0 .819-.74l-.391-1.839a15.255 15.255 0 0 0 9.329-14.089zm-15.305-.637a.638.638 0 1 1 0 1.277.638.638 0 0 1 0-1.277m2.101 14.864 2.184-1.948.603 2.84z"
        style="fill:var(--color4, #2e2f42)"
      />
      <path
        fill="#4d5ae5"
        d="M15.354 3.185V4.46a.638.638 0 1 0 1.276 0V3.185a.638.638 0 0 0-1.276 0M3.876 14.664a.638.638 0 0 0 0 1.276h1.275a.638.638 0 1 0 0-1.276zm24.232 1.275a.638.638 0 1 0 0-1.276h-1.275a.638.638 0 0 0 0 1.276z"
        style="fill:var(--color5, #4d5ae5)"
      />
    </symbol>
    <symbol
      id="diagram"
      viewBox="0 0 32 32"
    >
      <path
        fill="#4d5ae5"
        d="M14.925 14.965h1.066v4.798h-1.066zm4.265 2.132h1.066v2.665H19.19zm-8.529 1.599h1.066v1.066h-1.066zm-3.198-.533h1.066v1.599H7.463z"
        style="fill:var(--color5, #4d5ae5)"
      />
      <path
        fill="#2e2f42"
        d="M1.599 28.291h25.587a1.6 1.6 0 0 0 1.599-1.599V24.56a1.6 1.6 0 0 0-1.599-1.599h-.533V9.668L29.681 6.8a1.608 1.608 0 1 0-.746-.763L26.654 8.2V6.97a1.6 1.6 0 0 0-1.599-1.599H3.733A1.6 1.6 0 0 0 2.134 6.97v15.992h-.533a1.6 1.6 0 0 0-1.599 1.599v2.132a1.6 1.6 0 0 0 1.599 1.599zM30.384 4.837a.533.533 0 1 1 0 1.067.533.533 0 0 1 0-1.067M3.198 6.969c0-.294.239-.533.533-.533h21.322c.294 0 .533.239.533.533v2.239l-1.066 1.013V8.035a.533.533 0 0 0-.533-.533H4.797a.533.533 0 0 0-.533.533v13.326c0 .294.239.533.533.533h19.19a.533.533 0 0 0 .533-.533v-9.674l1.066-1.01v12.284H3.198zm4.798 6.93a1.598 1.598 0 1 0 1.107 2.749l1.853.93a.53.53 0 0 0 .636-.123l3.939-4.431 3.872 2.901a.53.53 0 0 0 .686-.039l3.365-3.188v8.131H5.33V8.569h18.124v2.66l-3.771 3.572-3.904-2.927a.533.533 0 0 0-.718.072l-3.993 4.493-1.493-.746q.017-.096.02-.193a1.6 1.6 0 0 0-1.599-1.599zm.533 1.599a.533.533 0 1 1-1.067 0 .533.533 0 0 1 1.067 0m3.198 8.529h5.331v.533a.533.533 0 0 1-.533.533h-4.264a.533.533 0 0 1-.533-.533zm-10.661.533c0-.294.239-.533.533-.533h9.062v.533a1.6 1.6 0 0 0 1.599 1.599h4.264a1.6 1.6 0 0 0 1.599-1.599v-.533h9.062c.294 0 .533.239.533.533v2.132a.533.533 0 0 1-.533.533H1.598a.533.533 0 0 1-.533-.533z"
        style="fill:var(--color4, #2e2f42)"
      />
    </symbol>
    <symbol
      id="astronaut"
      viewBox="0 0 32 32"
    >
      <path
        fill="#4d5ae5"
        d="M31.974 4.524a.53.53 0 0 0-.43-.363l-1.91-.278-.855-1.731c-.179-.365-.777-.365-.956 0l-.855 1.731-1.91.278a.535.535 0 0 0-.296.91l1.383 1.348-.326 1.903c-.034.2.048.402.212.522a.53.53 0 0 0 .562.04l1.709-.899 1.709.899a.536.536 0 0 0 .775-.563l-.326-1.903 1.383-1.348a.54.54 0 0 0 .135-.547zm-2.463 1.327a.53.53 0 0 0-.153.472l.191 1.114-1-.526a.53.53 0 0 0-.498 0l-1.001.526.191-1.114a.53.53 0 0 0-.153-.472l-.81-.789 1.119-.163a.53.53 0 0 0 .402-.292l.5-1.013.5 1.013a.54.54 0 0 0 .402.292l1.119.163zm-3.378 14.671h-1.067v1.067h1.067zm0 2.134h-1.067v1.067h1.067zm1.067-1.067h-1.067v1.067H27.2zm-2.133 0H24v1.067h1.067zm-2.667 4.8h-1.067v1.067H22.4zm0 2.133h-1.067v1.067H22.4zm1.067-1.066H22.4v1.067h1.067zm-2.134 0h-1.067v1.067h1.067zM16 24.256h-1.067v1.067H16zm0 2.133h-1.067v1.067H16zm1.067-1.067H16v1.067h1.067zm-2.134 0h-1.067v1.067h1.067zm-9.066-19.2H4.8v1.067h1.067zm0 2.133H4.8v1.067h1.067z"
        style="fill:var(--color5, #4d5ae5)"
      />
      <path
        fill="#4d5ae5"
        d="M6.933 7.189H5.866v1.067h1.067zm-2.133 0H3.733v1.067H4.8z"
        style="fill:var(--color5, #4d5ae5)"
      />
      <path
        fill="#2e2f42"
        d="M24.715 14.159a1.78 1.78 0 0 0-1.188-.705 1.78 1.78 0 0 0-1.34.352l-1.252.96-1.898 1.417-1.358-.541c2.421-1.086 4.114-3.508 4.114-6.32 0-3.823-3.123-6.933-6.961-6.933s-6.961 3.11-6.961 6.933a6.86 6.86 0 0 0 1.12 3.758l-2.764-.024h-.005l-.023.005a.5.5 0 0 0-.155.031l-.038.013-.019.006-3.233 1.596-.001.001-1.893.911a.4.4 0 0 0-.063.035 1.78 1.78 0 0 0-.598 2.295c.22.429.595.745 1.056.889q.268.083.539.083c.29 0 .577-.071.839-.211l1.388-.738 2.264-1.169 1.357-.008L2.2 22.211l-.002.001-1.339 1.333c-.316.315-.49.732-.49 1.178s.174.863.49 1.179c.325.323.752.485 1.179.485s.854-.162 1.18-.485l1.314-1.309 1.741-1.3.901.897-1.762 1.754-.002.001-1.339 1.333c-.316.315-.49.732-.49 1.178s.174.863.49 1.179c.325.323.753.485 1.18.485s.855-.162 1.18-.485l3.482-3.467.001-.002 1.01-1-.004-.004.022-.015 5.166-5.658 3.471.494q.037.006.075.005a.5.5 0 0 0 .187-.038q.026-.01.05-.023c.019-.01.039-.015.058-.027l3.213-2.133c.012-.008.018-.021.029-.029.013-.01.029-.014.041-.026l1.271-1.191c.662-.62.753-1.635.212-2.362M2.13 17.77a.7.7 0 0 1-.558.052.717.717 0 0 1-.213-1.26l1.314-.632.449 1.313zm3.498-1.828-1.548.8-.439-1.283 2.027-1.001zm15.099-6.62a5.8 5.8 0 0 1-.599 2.559l-4.181-1.899a1.86 1.86 0 0 0-.788-1.388l1.464-4.86c2.378.756 4.105 2.974 4.105 5.588zm-11.789 0c0-3.235 2.644-5.867 5.894-5.867.253 0 .5.021.745.052l-1.432 4.754c-.019-.001-.037-.006-.057-.006-1.033 0-1.873.837-1.873 1.867s.84 1.867 1.873 1.867c.694 0 1.294-.383 1.618-.945l3.862 1.755a5.9 5.9 0 0 1-4.737 2.39c-3.25 0-5.894-2.632-5.894-5.867zm5.956.8c0 .441-.362.8-.806.8s-.806-.359-.806-.8.362-.8.806-.8.806.359.806.8M2.465 25.146a.61.61 0 0 1-.854.001.59.59 0 0 1 0-.844l.962-.958.851.848-.959.955zm3.214 3.734a.61.61 0 0 1-.855.001.59.59 0 0 1 0-.844l.963-.959.852.848-.96.955zm3.481-3.469-.002.001-1.765 1.76-.852-.848 1.763-1.755.002-.001c.04-.04.065-.088.09-.135.007-.014.02-.026.026-.04.017-.041.019-.085.026-.129.003-.025.014-.047.014-.073 0-.036-.013-.07-.02-.106-.006-.032-.006-.065-.019-.095a.6.6 0 0 0-.091-.138c-.01-.012-.014-.027-.025-.038h-.001l-.001-.002-1.607-1.6c-.017-.017-.039-.024-.058-.038a.5.5 0 0 0-.087-.058.5.5 0 0 0-.093-.033.5.5 0 0 0-.103-.02.5.5 0 0 0-.095.005.5.5 0 0 0-.104.02.5.5 0 0 0-.094.045c-.02.011-.042.015-.061.029L4.23 23.486l-.901-.897 2.399-2.386 4.361 4.289zm6.819-7.017c-.015-.002-.03.004-.045.003a.56.56 0 0 0-.3.075.5.5 0 0 0-.083.061c-.013.011-.028.017-.04.029l-4.698 5.146-4.328-4.257 2.833-2.818a.534.534 0 0 0-.379-.911v-.001l-2.219.013.028-1.607 3.104.027a6.95 6.95 0 0 0 4.981 2.101c.437 0 .864-.045 1.279-.123.04.032.079.065.13.085l2.41.96.152.758.178.885zm4.041.178-.313-1.558 1.446-1.08.947 1.257zm3.754-2.831-.838.785-.931-1.236.831-.637a.74.74 0 0 1 .543-.143.72.72 0 0 1 .48.284.713.713 0 0 1-.085.947"
        style="fill:var(--color4, #2e2f42)"
      />
      <path
        fill="#2e2f42"
        d="m13.602 18.544-2.143-2.133a.534.534 0 0 0-.753 0l-2.142 2.133a.537.537 0 0 0 0 .756l2.142 2.133a.536.536 0 0 0 .753 0l2.143-2.133a.535.535 0 0 0 0-.756m-2.519 1.759-1.387-1.381 1.387-1.381 1.387 1.381zm6.081-15.232-.258 1.036c.071.018 1.738.452 1.738 2.149h1.067c0-2.017-1.666-2.965-2.547-3.185m2.547 4.251h-1.067v1.067h1.067z"
        style="fill:var(--color4, #2e2f42)"
      />
    </symbol>
    <symbol
      id="chocolate"
      viewBox="0 0 32 32"
    >
      <path
        fill="#111"
        d="m13.822 2.413 7.527 7.536.08-.08a.856.856 0 0 1 1.184-.013l.873.873c.305.305.315.77.083 1.094l-.004.007-.143.192 6.16 6.16c.55.55.55 1.43 0 1.98l-9.43 9.43c-.55.55-1.43.55-1.98 0l-4.447-4.447a.85.85 0 0 1-.612.317.84.84 0 0 1-.644-.246l-2.6-2.6a.856.856 0 0 1-.013-1.184l.006-.007.077-.076-7.527-7.527c-.55-.55-.55-1.43 0-1.98l9.43-9.43c.55-.55 1.43-.55 1.98 0zm6.582 8.48-1.756-1.755a.59.59 0 0 0-.85 0l-3.58 3.58a.6.6 0 0 0 0 .86l1.749 1.749.61-.61-1.565-1.565 3.21-3.22 1.569 1.574zm-5.075 5.073-1.754-1.754a.59.59 0 0 0-.85 0l-3.59 3.59c-.24.23-.24.61 0 .85l1.752 1.752.616-.616-1.57-1.564 3.22-3.21 1.564 1.563zM8.822 8.194l3.58 3.58c.24.24.62.24.85-.01l3.58-3.58a.57.57 0 0 0 .18-.42h.01c0-.15-.06-.31-.18-.43l-3.58-3.58a.6.6 0 0 0-.86 0l-3.58 3.59c-.24.23-.24.61 0 .85m-5.07 5.07 3.58 3.58c.24.24.62.24.85 0l3.58-3.58a.58.58 0 0 0 .18-.43h.01c0-.16-.06-.31-.18-.43l-3.58-3.58a.59.59 0 0 0-.85 0l-3.59 3.59c-.24.23-.24.61 0 .85m6.933 8.753 2.362 2.363 9.636-13.04-.655-.655z"
        style="fill:var(--color4, #111)"
      />
      <path
        fill="#fd9222"
        d="m13.822 2.413 7.527 7.536.08-.08a.856.856 0 0 1 1.184-.013l.873.873c.305.305.315.77.083 1.094l-.004.007-.143.192 6.16 6.16c.55.55.55 1.43 0 1.98l-9.43 9.43c-.55.55-1.43.55-1.98 0l-4.447-4.447a.85.85 0 0 1-.612.317.84.84 0 0 1-.644-.246l-2.6-2.6a.856.856 0 0 1-.013-1.184l.006-.007.077-.076-7.527-7.527c-.55-.55-.55-1.43 0-1.98l9.43-9.43c.55-.55 1.43-.55 1.98 0zm6.582 8.48-1.756-1.755a.59.59 0 0 0-.85 0l-3.58 3.58a.6.6 0 0 0 0 .86l1.749 1.749.61-.61-1.565-1.565 3.21-3.22 1.569 1.574zm-5.075 5.073-1.754-1.754a.59.59 0 0 0-.85 0l-3.59 3.59c-.24.23-.24.61 0 .85l1.752 1.752.616-.616-1.57-1.564 3.22-3.21 1.564 1.563zM8.822 8.194l3.58 3.58c.24.24.62.24.85-.01l3.58-3.58a.57.57 0 0 0 .18-.42h.01c0-.15-.06-.31-.18-.43l-3.58-3.58a.6.6 0 0 0-.86 0l-3.58 3.59c-.24.23-.24.61 0 .85m-5.07 5.07 3.58 3.58c.24.24.62.24.85 0l3.58-3.58a.58.58 0 0 0 .18-.43h.01c0-.16-.06-.31-.18-.43l-3.58-3.58a.59.59 0 0 0-.85 0l-3.59 3.59c-.24.23-.24.61 0 .85m6.933 8.753 2.362 2.363 9.636-13.04-.655-.655z"
        style="fill:var(--color2, #fd9222)"
      />
    </symbol>
    <symbol
      id="coin"
      viewBox="0 0 32 32"
    >
      <path
        fill="#fd9222"
        d="M16 2.667c-7.333 0-13.333 6-13.333 13.333s6 13.333 13.333 13.333 13.333-6 13.333-13.333S23.333 2.667 16 2.667m0 24c-5.867 0-10.667-4.8-10.667-10.667S10.133 5.333 16 5.333 26.667 10.133 26.667 16 21.867 26.667 16 26.667"
        style="fill:var(--color1, #fd9222)"
      />
      <path
        fill="#fd9222"
        d="M17.733 14.667h-3.467c-.667 0-1.2-.533-1.2-1.2s.533-1.2 1.2-1.2h4.933c.8 0 1.333-.533 1.333-1.333s-.533-1.333-1.333-1.333h-1.867v-1.2c0-.8-.533-1.333-1.333-1.333s-1.333.533-1.333 1.333v1.2h-.4c-2.133 0-3.867 1.733-3.867 3.867s1.733 3.867 3.867 3.867h3.333c.667 0 1.2.533 1.2 1.2s-.533 1.2-1.2 1.2h-4.933c-.8 0-1.333.533-1.333 1.333s.533 1.333 1.333 1.333h2v1.2c0 .8.533 1.333 1.333 1.333s1.333-.533 1.333-1.333v-1.2h.4c2.133 0 3.867-1.733 3.867-3.867s-1.733-3.867-3.867-3.867z"
        style="fill:var(--color1, #fd9222)"
      />
    </symbol>
    <symbol
      id="spoon"
      viewBox="0 0 32 32"
    >
      <path
        fill="#fd9222"
        d="M15.451 14.106a5.15 5.15 0 0 1-1.177-3.282c0-4.324 5.181-8.642 10.362-8.642a5.183 5.183 0 0 1 5.181 5.182c0 5.182-4.318 10.364-8.646 10.364a5.15 5.15 0 0 1-3.281-1.177L5.132 29.312a1.73 1.73 0 0 1-2.445-2.445z"
        style="fill:var(--color1, #fd9222)"
      />
    </symbol>
    <symbol
      id="user"
      viewBox="0 0 32 32"
      fill="none"
    >
      <path
        stroke-linejoin="round"
        stroke-linecap="round"
        stroke-miterlimit="4"
        stroke-width="2.6667"
        d="M26.667 28v-2.667c0-1.415-0.562-2.771-1.562-3.771s-2.357-1.562-3.771-1.562h-10.667c-1.415 0-2.771 0.562-3.771 1.562s-1.562 2.357-1.562 3.771v2.667"
      ></path>
      <path
        stroke-linejoin="round"
        stroke-linecap="round"
        stroke-miterlimit="4"
        stroke-width="2.6667"
        d="M16 14.667c2.945 0 5.333-2.388 5.333-5.333s-2.388-5.333-5.333-5.333c-2.946 0-5.333 2.388-5.333 5.333s2.388 5.333 5.333 5.333z"
      ></path>
    </symbol>
    <symbol
      id="email"
      viewBox="0 0 32 32"
      fill="none"
    >
      <path
        stroke-linejoin="round"
        stroke-linecap="round"
        stroke-miterlimit="4"
        stroke-width="2.6667"
        d="M5.333 5.333h21.333c1.467 0 2.667 1.2 2.667 2.667v16c0 1.467-1.2 2.667-2.667 2.667h-21.333c-1.467 0-2.667-1.2-2.667-2.667v-16c0-1.467 1.2-2.667 2.667-2.667z"
      ></path>
      <path
        stroke-linejoin="round"
        stroke-linecap="round"
        stroke-miterlimit="4"
        stroke-width="2.6667"
        d="M29.333 8l-13.333 9.333-13.333-9.333"
      ></path>
    </symbol>
    <symbol
      id="phone"
      viewBox="0 0 32 32"
      fill="none"
    >
      <path
        stroke-linejoin="round"
        stroke-linecap="round"
        stroke-miterlimit="4"
        stroke-width="2.6667"
        d="M29.333 22.56v4c0.001 0.371-0.075 0.739-0.223 1.079s-0.367 0.646-0.641 0.897c-0.274 0.251-0.597 0.442-0.948 0.561s-0.725 0.163-1.094 0.13c-4.103-0.446-8.044-1.848-11.507-4.093-3.222-2.047-5.953-4.778-8-8-2.253-3.478-3.656-7.439-4.093-11.56-0.033-0.369 0.010-0.74 0.129-1.091s0.308-0.673 0.558-0.947c0.25-0.273 0.553-0.492 0.892-0.641s0.705-0.227 1.075-0.227h4c0.647-0.006 1.274 0.223 1.765 0.645s0.811 1.008 0.902 1.649c0.169 1.28 0.482 2.537 0.933 3.747 0.179 0.477 0.218 0.996 0.112 1.495s-0.353 0.956-0.712 1.319l-1.693 1.693c1.898 3.338 4.662 6.102 8 8l1.693-1.693c0.362-0.359 0.82-0.606 1.319-0.712s1.017-0.067 1.495 0.112c1.21 0.451 2.467 0.765 3.747 0.933 0.648 0.091 1.239 0.418 1.662 0.917s0.647 1.136 0.631 1.79z"
      ></path>
    </symbol>
    <symbol
      id="close"
      viewBox="0 0 28 28"
      fill="none"
    >
      <path
        d="M21 7L7 21"
        stroke-width="2"
        stroke-linecap="round"
        stroke-linejoin="round"
      />
      <path
        d="M7 7L21 21"
        stroke-width="2"
        stroke-linecap="round"
        stroke-linejoin="round"
      />
    </symbol>
    <symbol
      id="subscr"
      viewBox="0 0 640 640"
    >
      <path
        d="M320 64C306.7 64 296 74.7 296 88L296 97.7C214.6 109.3 152 179.4 152 264L152 278.5C152 316.2 142 353.2 123 385.8L101.1 423.2C97.8 429 96 435.5 96 442.2C96 463.1 112.9 480 133.8 480L506.2 480C527.1 480 544 463.1 544 442.2C544 435.5 542.2 428.9 538.9 423.2L517 385.7C498 353.1 488 316.1 488 278.4L488 263.9C488 179.3 425.4 109.2 344 97.6L344 87.9C344 74.6 333.3 63.9 320 63.9zM488.4 432L151.5 432L164.4 409.9C187.7 370 200 324.6 200 278.5L200 264C200 197.7 253.7 144 320 144C386.3 144 440 197.7 440 264L440 278.5C440 324.7 452.3 370 475.5 409.9L488.4 432zM252.1 528C262 556 288.7 576 320 576C351.3 576 378 556 387.9 528L252.1 528z"
      />
    </symbol>
  </defs>
</svg>
